<?xml version="1.0" standalone="no"?>
<!DOCTYPE svg PUBLIC "-//W3C//DTD SVG 20010904//EN"
 "http://www.w3.org/TR/2001/REC-SVG-20010904/DTD/svg10.dtd">
<svg version="1.0" xmlns="http://www.w3.org/2000/svg"
 width="1000.000000pt" height="1000.000000pt" viewBox="0 0 1000.000000 1000.000000"
 preserveAspectRatio="xMidYMid meet">

<g transform="translate(0.000000,1000.000000) scale(0.100000,-0.100000)"
fill="#000000" stroke="none">
<path d="M2938 9570 c-288 -28 -399 -53 -743 -167 -27 -9 -85 -34 -127 -55
-43 -21 -84 -38 -91 -38 -7 0 -40 -16 -73 -36 -32 -20 -81 -47 -109 -61 -40
-21 -181 -111 -220 -141 -5 -4 -41 -32 -80 -60 -194 -146 -461 -423 -570 -590
-5 -8 -30 -45 -54 -81 -70 -104 -155 -259 -207 -381 -16 -36 -33 -72 -39 -80
-6 -8 -19 -42 -29 -75 -37 -121 -78 -240 -85 -245 -11 -8 -41 -127 -41 -162 0
-18 -5 -49 -10 -68 -6 -19 -17 -116 -25 -215 -12 -151 -15 -495 -15 -2125 0
-1170 4 -1985 10 -2045 24 -248 54 -405 110 -575 20 -63 46 -142 56 -175 10
-33 23 -67 29 -75 6 -8 23 -44 39 -80 64 -148 187 -366 264 -465 4 -5 32 -41
60 -80 131 -174 333 -376 507 -507 39 -28 75 -56 80 -60 39 -30 180 -120 220
-141 28 -14 77 -41 109 -61 33 -20 66 -36 73 -36 7 0 48 -17 91 -38 42 -21
100 -46 127 -55 349 -116 445 -137 750 -167 109 -10 1407 -14 1468 -4 36 6 37
8 37 50 0 40 -2 44 -25 44 -24 0 -25 3 -25 60 0 33 -4 60 -9 60 -4 0 -16 27
-25 60 -11 38 -22 60 -32 60 -7 0 -14 7 -14 15 0 8 -6 15 -14 15 -8 0 -18 19
-25 45 -6 25 -16 45 -21 45 -6 0 -11 28 -11 63 -1 50 -3 55 -8 27 -6 -34 -7
-34 -19 -13 -17 31 -16 103 2 103 8 0 17 -8 19 -17 3 -10 4 32 4 92 -1 61 -2
82 -4 48 -5 -77 -23 -84 -23 -9 0 62 -11 97 -39 125 -10 10 -22 28 -26 40 -3
12 -12 21 -20 21 -9 0 -15 20 -20 60 -5 41 -11 60 -21 60 -8 0 -14 7 -14 15 0
8 9 15 20 15 17 0 20 7 20 40 0 52 -39 170 -56 170 -11 0 -14 18 -14 74 0 64
-3 76 -25 100 -14 15 -25 31 -25 35 0 5 -183 10 -406 13 -256 3 -408 9 -412
15 -4 5 -38 13 -76 16 -38 4 -72 10 -75 15 -3 5 -40 14 -81 21 -41 6 -77 16
-80 20 -3 4 -29 14 -57 21 -29 8 -53 17 -53 21 0 4 -13 10 -30 14 -16 4 -30
10 -30 15 0 5 -13 11 -30 15 -16 4 -30 11 -30 16 0 5 -11 11 -25 15 -14 3 -25
10 -25 14 0 4 -13 13 -30 20 -17 7 -30 16 -30 21 0 5 -7 9 -15 9 -9 0 -18 7
-21 15 -4 8 -12 15 -19 15 -7 0 -23 11 -36 25 -13 13 -27 25 -31 25 -14 0
-155 145 -162 166 -3 11 -17 27 -30 34 -14 7 -27 22 -30 34 -3 12 -15 33 -26
46 -11 13 -20 29 -20 35 0 7 -7 15 -15 19 -8 3 -15 12 -15 21 0 8 -4 15 -8 15
-5 0 -14 18 -21 40 -6 22 -16 40 -21 40 -4 0 -11 14 -15 30 -4 17 -10 30 -14
30 -4 0 -13 25 -20 55 -7 30 -16 55 -20 55 -5 0 -11 23 -15 50 -4 28 -10 50
-15 50 -8 0 -31 143 -31 198 0 17 -4 32 -10 32 -6 0 -10 78 -10 215 l0 215
910 0 911 0 -7 118 c-4 64 -11 125 -16 135 -11 21 -28 22 -28 2 0 -8 -4 -15
-9 -15 -5 0 -16 -3 -25 -6 -20 -8 -22 22 -2 33 7 4 17 18 20 31 7 20 4 22 -29
22 l-37 0 16 25 c21 31 21 32 -10 39 -20 5 -24 11 -18 29 4 12 12 25 18 29 6
4 7 8 1 8 -17 0 -32 -14 -39 -37 -6 -17 -15 -23 -37 -23 -36 0 -38 18 -4 54
20 22 23 30 12 40 -10 12 -13 10 -15 -10 -3 -21 -9 -24 -43 -24 -21 0 -42 1
-46 3 -11 3 -5 41 7 45 20 7 -19 32 -49 32 -33 0 -37 9 -32 73 2 25 0 27 -39
27 -33 0 -41 3 -36 15 3 8 -1 21 -9 28 -8 9 -10 19 -4 28 24 38 -16 56 -49 22
-16 -16 -17 -14 -20 30 -3 42 -6 47 -28 47 -16 0 -24 6 -24 18 0 14 -2 15 -9
3 -8 -12 -11 -9 -16 12 -4 15 -5 36 -2 47 6 24 -6 26 -27 4 -15 -14 -16 -14
-16 0 0 14 -27 16 -220 16 l-220 0 0 -365 0 -365 -210 0 -210 0 0 580 0 580
311 2 310 3 -20 21 c-16 18 -18 31 -14 83 l6 61 -37 0 -36 0 0 570 0 570 110
0 110 0 0 45 c0 33 4 45 15 45 12 0 15 13 15 60 0 47 -3 60 -15 60 -8 0 -15 5
-15 10 0 6 5 10 10 10 6 0 16 12 23 28 15 34 48 72 63 72 13 0 29 211 19 251
-5 18 1 32 19 52 23 25 26 36 26 108 0 43 4 79 9 79 5 0 11 17 14 38 14 93 26
136 41 147 12 9 16 29 16 79 0 39 4 66 10 66 6 0 10 17 8 40 -1 22 3 45 10 52
9 9 12 3 12 -28 l0 -39 20 25 c25 32 27 100 4 100 -15 0 -15 2 1 26 9 14 25
34 36 45 25 25 24 49 -1 49 l-21 0 21 22 c11 12 20 27 20 34 0 18 44 64 61 64
15 0 39 44 39 72 0 10 -4 18 -10 18 -5 0 -10 14 -10 30 0 17 5 30 10 30 6 0
10 7 10 15 0 8 5 15 10 15 6 0 10 14 10 30 0 17 5 30 10 30 6 0 10 7 10 15 0
8 5 15 10 15 6 0 10 7 10 15 0 8 5 15 10 15 6 0 10 9 10 20 0 11 5 20 11 20 6
0 9 6 6 13 -2 6 4 28 15 47 10 19 18 45 18 57 0 13 5 23 10 23 6 0 10 25 10
55 0 30 8 73 17 95 16 37 21 40 55 40 34 0 38 3 38 25 0 16 -6 25 -15 25 -13
0 -14 4 -5 20 6 11 16 20 23 20 17 0 47 53 47 83 0 37 20 87 36 87 8 0 14 7
14 15 0 8 3 15 8 15 17 0 32 59 33 129 0 78 17 151 18 84 1 -41 19 -43 34 -3
7 18 19 30 29 30 13 0 18 8 18 28 0 15 7 36 15 46 8 11 15 32 15 46 0 15 11
39 25 54 18 19 25 38 25 67 0 21 4 39 8 39 9 0 24 27 59 107 17 40 20 43 60
43 34 0 43 4 49 23 4 12 9 24 13 27 3 3 12 15 19 28 l12 22 -602 -1 c-332 -1
-638 -5 -680 -9z m565 -5590 c-3 -11 -9 -20 -14 -20 -10 0 -12 24 -2 33 13 13
21 7 16 -13z"/>
<path d="M3360 7715 c0 -8 -4 -15 -10 -15 -5 0 -10 -7 -10 -15 0 -8 -4 -15
-10 -15 -5 0 -10 -7 -10 -15 0 -8 -4 -15 -10 -15 -5 0 -10 -7 -10 -15 0 -8 5
-15 10 -15 6 0 10 6 10 13 0 7 14 27 30 45 30 33 39 62 20 62 -5 0 -10 -7 -10
-15z"/>
<path d="M3460 4190 c0 -5 5 -10 10 -10 6 0 10 5 10 10 0 6 -4 10 -10 10 -5 0
-10 -4 -10 -10z"/>
<path d="M2356 3213 c4 -32 10 -60 14 -63 4 -3 13 -35 20 -72 7 -38 16 -68 21
-68 4 0 11 -16 15 -35 3 -19 10 -35 14 -35 5 0 11 -13 15 -29 3 -16 12 -32 20
-34 7 -3 16 -19 20 -35 3 -16 17 -35 30 -42 13 -7 26 -23 29 -36 4 -13 15 -28
26 -34 11 -6 20 -17 20 -25 0 -8 4 -15 8 -15 5 0 15 -11 22 -25 7 -13 23 -28
34 -31 12 -3 32 -18 46 -33 14 -14 39 -33 55 -41 17 -8 34 -21 38 -27 4 -7 15
-13 22 -13 8 0 15 -4 15 -8 0 -5 19 -14 42 -21 22 -7 48 -19 55 -27 8 -8 25
-14 39 -14 13 0 24 -4 24 -9 0 -5 18 -12 40 -16 22 -4 40 -10 40 -15 0 -9 156
-30 223 -30 26 0 47 -4 47 -10 0 -6 108 -10 305 -10 l305 0 0 25 c0 14 -4 25
-10 25 -5 0 -10 7 -10 15 0 8 -4 15 -10 15 -5 0 -10 7 -10 15 0 8 -4 15 -10
15 -5 0 -10 7 -10 15 0 8 -4 15 -10 15 -5 0 -10 7 -10 15 0 8 9 15 20 15 17 0
20 7 20 48 0 30 -7 58 -20 77 -11 17 -20 42 -20 58 0 15 -4 27 -10 27 -5 0
-10 14 -10 30 0 27 -3 30 -30 30 -29 0 -30 2 -30 45 0 38 3 45 20 45 11 0 20
7 20 15 0 8 -4 15 -10 15 -5 0 -10 21 -10 48 0 63 -32 192 -47 192 -8 0 -13
13 -13 30 0 16 -5 41 -12 55 l-11 25 -694 0 -694 0 7 -57z"/>
</g>
</svg>
