<?xml version="1.0" standalone="no"?>
<!DOCTYPE svg PUBLIC "-//W3C//DTD SVG 20010904//EN"
 "http://www.w3.org/TR/2001/REC-SVG-20010904/DTD/svg10.dtd">
<svg version="1.0" xmlns="http://www.w3.org/2000/svg"
 width="1000.000000pt" height="1000.000000pt" viewBox="0 0 1000.000000 1000.000000"
 preserveAspectRatio="xMidYMid meet">
<metadata>
Created by potrace 1.14, written by Peter Selinger 2001-2017
</metadata>
<g transform="translate(0.000000,1000.000000) scale(0.100000,-0.100000)"
fill="#000000" stroke="none">
<path d="M2938 9570 c-288 -28 -399 -53 -743 -167 -27 -9 -85 -34 -127 -55
-43 -21 -84 -38 -91 -38 -7 0 -40 -16 -73 -36 -32 -20 -81 -47 -109 -61 -40
-21 -181 -111 -220 -141 -5 -4 -41 -32 -80 -60 -194 -146 -461 -423 -570 -590
-5 -8 -30 -45 -54 -81 -70 -104 -155 -259 -207 -381 -16 -36 -33 -72 -39 -80
-6 -8 -19 -42 -29 -75 -37 -121 -78 -240 -85 -245 -11 -8 -41 -127 -41 -162 0
-18 -5 -49 -10 -68 -6 -19 -17 -116 -25 -215 -12 -151 -15 -495 -15 -2125 0
-1170 4 -1985 10 -2045 24 -248 54 -405 110 -575 20 -63 46 -142 56 -175 10
-33 23 -67 29 -75 6 -8 23 -44 39 -80 64 -148 187 -366 264 -465 4 -5 32 -41
60 -80 131 -174 333 -376 507 -507 39 -28 75 -56 80 -60 39 -30 180 -120 220
-141 28 -14 77 -41 109 -61 33 -20 66 -36 73 -36 7 0 48 -17 91 -38 42 -21
100 -46 127 -55 349 -116 445 -137 750 -167 134 -13 3976 -13 4110 0 305 30
401 51 750 167 28 9 85 34 127 55 43 21 84 38 91 38 7 0 40 16 73 36 32 20 81
47 109 61 27 14 83 48 125 77 42 28 84 56 92 61 167 108 444 376 590 570 28
39 56 75 60 80 77 99 200 317 264 465 16 36 33 72 39 80 6 8 19 42 29 75 37
121 78 240 85 245 11 8 41 127 41 162 0 18 5 49 10 68 26 88 40 402 40 883 l0
488 -620 -3 c-446 -2 -623 -6 -628 -14 -4 -6 -22 -15 -39 -19 -18 -3 -33 -10
-33 -14 0 -5 -20 -14 -44 -21 -25 -7 -47 -18 -50 -26 -3 -8 -10 -14 -16 -14
-6 0 -136 -126 -289 -279 l-279 -280 -7 -100 c-4 -56 -11 -101 -15 -101 -5 0
-11 -31 -15 -70 -4 -38 -10 -70 -14 -70 -4 0 -14 -32 -21 -72 -7 -40 -19 -78
-26 -86 -8 -7 -14 -22 -14 -33 0 -11 -7 -27 -15 -35 -8 -9 -15 -26 -15 -39 0
-13 -6 -30 -14 -37 -7 -8 -17 -24 -20 -36 -4 -12 -11 -22 -15 -22 -4 0 -13
-16 -20 -35 -7 -19 -17 -35 -22 -35 -5 0 -9 -7 -9 -15 0 -8 -13 -28 -30 -45
-16 -17 -30 -35 -30 -39 0 -5 -11 -19 -25 -32 -13 -13 -25 -28 -25 -32 0 -12
-115 -127 -126 -127 -5 0 -20 -13 -34 -30 -14 -16 -30 -30 -37 -30 -7 0 -21
-9 -30 -20 -10 -11 -23 -20 -29 -20 -7 0 -14 -6 -17 -14 -3 -8 -19 -17 -35
-21 -17 -3 -33 -13 -36 -21 -3 -8 -12 -14 -21 -14 -8 0 -15 -4 -15 -9 0 -5
-13 -12 -30 -16 -16 -4 -30 -10 -30 -15 0 -4 -22 -14 -50 -21 -27 -7 -50 -16
-50 -20 0 -5 -16 -11 -35 -15 -19 -3 -35 -10 -35 -14 0 -5 -34 -14 -75 -21
-41 -6 -75 -15 -75 -20 0 -4 -35 -11 -77 -14 -43 -4 -81 -13 -85 -19 -10 -16
-3116 -16 -3126 0 -4 6 -38 14 -76 17 -38 4 -72 10 -75 15 -3 5 -40 14 -81 21
-41 6 -77 16 -80 20 -3 4 -29 14 -57 21 -29 8 -53 17 -53 21 0 4 -13 10 -30
14 -16 4 -30 10 -30 15 0 5 -13 11 -30 15 -16 4 -30 11 -30 16 0 5 -11 11 -25
15 -14 3 -25 10 -25 14 0 4 -13 13 -30 20 -17 7 -30 16 -30 21 0 5 -7 9 -15 9
-9 0 -18 7 -21 15 -4 8 -12 15 -19 15 -7 0 -23 11 -36 25 -13 13 -27 25 -31
25 -14 0 -155 145 -162 166 -3 11 -17 27 -30 34 -14 7 -27 22 -30 34 -3 12
-15 33 -26 46 -11 13 -20 29 -20 35 0 7 -7 15 -15 19 -8 3 -15 12 -15 21 0 8
-4 15 -8 15 -5 0 -14 18 -21 40 -6 22 -16 40 -21 40 -4 0 -11 14 -15 30 -4 17
-10 30 -14 30 -4 0 -13 25 -20 55 -7 30 -16 55 -20 55 -5 0 -11 23 -15 50 -4
28 -10 50 -15 50 -8 0 -31 143 -31 198 0 17 -4 32 -10 32 -6 0 -10 78 -10 215
l0 215 2680 0 2681 0 35 33 c20 17 43 40 52 50 22 25 205 207 229 229 10 9 28
27 41 40 12 12 27 28 32 33 6 6 44 45 86 88 42 42 79 77 83 77 4 0 13 10 20
23 7 13 28 29 47 36 19 7 34 16 34 21 0 5 10 12 22 16 12 3 28 12 35 18 34 31
45 36 87 47 25 6 46 15 46 19 0 5 18 11 40 15 22 4 40 10 40 14 0 23 195 31
773 31 l607 0 0 1238 c0 1003 -3 1271 -15 1417 -8 99 -19 196 -25 215 -5 19
-10 50 -10 68 0 35 -30 154 -41 162 -7 5 -48 124 -85 245 -10 33 -23 67 -29
75 -6 8 -23 44 -39 80 -52 122 -137 277 -207 381 -24 36 -48 73 -54 81 -123
188 -465 531 -653 653 -8 6 -50 33 -92 61 -42 29 -98 63 -125 77 -28 14 -77
41 -109 61 -33 20 -66 36 -73 36 -7 0 -48 17 -91 38 -42 21 -99 46 -127 55
-349 116 -445 137 -750 167 -117 11 -3999 11 -4117 0z m1822 -1390 c6 -11 22
-23 35 -26 14 -3 25 -13 25 -20 0 -8 16 -30 35 -50 19 -19 35 -39 35 -45 0 -5
6 -12 13 -15 8 -3 20 -20 27 -39 8 -19 17 -35 21 -35 4 0 10 -19 14 -42 4 -24
12 -46 18 -50 15 -9 15 -207 1 -216 -6 -4 -14 -17 -18 -28 -8 -26 -90 -114
-106 -114 -6 0 -19 -7 -27 -16 -13 -13 -36 -15 -125 -12 -60 1 -112 8 -116 13
-4 6 -19 16 -34 24 -16 8 -28 18 -28 22 0 4 -11 17 -25 30 -13 13 -25 30 -25
37 0 6 -4 12 -9 12 -5 0 -15 26 -21 57 -15 68 2 226 25 250 8 8 15 25 15 39 0
13 5 24 10 24 6 0 15 11 20 25 5 14 14 25 20 25 5 0 10 5 10 11 0 7 16 27 35
46 19 19 35 40 35 48 0 8 6 15 14 15 8 0 24 11 37 25 29 30 74 33 89 5z
m-1000 -310 c44 -45 80 -87 80 -94 0 -8 7 -16 15 -20 8 -3 15 -12 15 -21 0 -8
4 -15 8 -15 9 0 32 -59 32 -82 0 -9 6 -18 13 -20 15 -6 17 -245 2 -256 -5 -4
-19 -25 -30 -46 -11 -22 -29 -44 -40 -50 -11 -6 -24 -17 -28 -23 -4 -7 -14
-13 -22 -13 -7 0 -15 -6 -17 -12 -4 -10 -36 -13 -118 -13 -82 0 -114 3 -117
13 -3 6 -11 12 -18 12 -8 0 -20 6 -27 13 -7 8 -23 19 -36 26 -12 6 -22 18 -22
26 0 8 -5 15 -10 15 -6 0 -15 20 -22 45 -7 25 -16 45 -20 45 -4 0 -8 38 -8 85
0 47 4 85 9 85 5 0 12 23 16 50 4 28 13 57 20 64 8 7 17 25 21 40 3 14 10 26
16 26 5 0 14 14 19 30 6 17 14 30 18 30 7 0 33 24 99 92 40 42 47 47 59 48 7
0 49 -36 93 -80z m2100 0 c44 -45 80 -87 80 -94 0 -8 7 -16 15 -20 8 -3 15
-12 15 -21 0 -8 5 -15 10 -15 6 0 10 -6 10 -14 0 -8 6 -21 13 -28 45 -46 49
-300 6 -352 -5 -6 -18 -23 -30 -38 -11 -16 -26 -28 -34 -28 -7 0 -15 -7 -19
-15 -3 -8 -12 -15 -20 -15 -8 0 -16 -6 -18 -12 -4 -10 -36 -13 -118 -13 -82 0
-114 3 -117 13 -3 6 -10 12 -15 12 -11 0 -19 6 -63 48 -37 35 -56 63 -62 93
-3 16 -9 29 -14 29 -5 0 -9 38 -9 85 0 47 4 85 9 85 5 0 12 23 16 50 4 28 11
50 15 50 4 0 13 14 19 30 5 17 16 37 23 45 28 31 38 44 38 51 0 12 145 153
158 153 7 1 48 -35 92 -79z m-930 -980 l0 -410 -210 0 -210 0 0 410 0 410 210
0 210 0 0 -410z m-1060 -135 l0 -275 -205 0 -205 0 0 275 0 275 205 0 205 0 0
-275z m2120 0 l0 -275 -215 0 -215 0 0 275 0 275 215 0 215 0 0 -275z m700
-1015 l0 -570 -210 0 -210 0 0 360 0 360 -1550 0 -1550 0 0 -360 0 -360 -215
0 -215 0 0 570 0 570 1975 0 1975 0 0 -570z m520 -1320 l0 -580 -210 0 -210 0
0 365 0 365 -2075 0 -2075 0 0 -365 0 -365 -210 0 -210 0 0 580 0 580 2495 0
2495 0 0 -580z"/>
<path d="M2356 3213 c4 -32 10 -60 14 -63 4 -3 13 -35 20 -72 7 -38 16 -68 21
-68 4 0 11 -16 15 -35 3 -19 10 -35 14 -35 5 0 11 -13 15 -29 3 -16 12 -32 20
-34 7 -3 16 -19 20 -35 3 -16 17 -35 30 -42 13 -7 26 -23 29 -36 4 -13 15 -28
26 -34 11 -6 20 -17 20 -25 0 -8 4 -15 8 -15 5 0 15 -11 22 -25 7 -13 23 -28
34 -31 12 -3 32 -18 46 -33 14 -14 39 -33 55 -41 17 -8 34 -21 38 -27 4 -7 15
-13 22 -13 8 0 15 -4 15 -8 0 -5 19 -14 42 -21 22 -7 48 -19 55 -27 8 -8 25
-14 39 -14 13 0 24 -4 24 -9 0 -5 18 -12 40 -16 22 -4 40 -10 40 -15 0 -9 156
-30 223 -30 26 0 47 -4 47 -10 0 -7 472 -10 1395 -10 923 0 1395 3 1395 10 0
6 21 10 46 10 65 0 224 22 224 31 0 4 19 10 42 14 23 4 48 14 56 21 7 8 24 14
38 14 13 0 24 4 24 9 0 5 17 15 38 22 20 6 41 18 45 25 4 8 15 14 22 14 8 0
15 5 15 10 0 6 6 10 13 10 7 0 23 9 35 20 12 11 24 20 28 20 8 0 164 157 164
165 0 3 9 15 20 27 11 12 20 27 20 34 0 6 7 14 15 18 8 3 15 12 15 21 0 8 4
15 9 15 5 0 12 12 15 26 4 15 14 33 21 41 8 8 18 32 21 54 4 21 10 39 14 39 5
0 11 18 15 40 4 22 10 40 15 40 4 0 11 26 15 58 3 31 9 67 12 80 l5 22 -2397
0 -2396 0 7 -57z"/>
</g>
</svg>
